<svg width="302" height="60" viewBox="0 0 302 60" fill="none" xmlns="http://www.w3.org/2000/svg">
<g clip-path="url(#clip0_2_85)">
<path d="M0.673237 59.9998C0.149489 59.7106 -0.00748874 59.2468 -0.00015333 58.6759C0.0145175 57.5824 -0.00162041 56.4889 0.005715 55.3955C0.0130504 54.4576 0.344611 54.1229 1.26741 54.1126C1.97014 54.1053 2.6758 54.0715 3.37414 54.1229C3.9419 54.1655 4.11061 53.9409 4.03286 53.4257C4.02992 53.4067 4.03286 53.3861 4.03286 53.367C4.03286 43.7181 4.02992 34.0706 4.04313 24.4216C4.04313 23.9798 3.92869 23.7406 3.52231 23.5189C2.64793 23.0434 2.14619 22.2743 2.05963 21.2615C2.04203 21.0473 2.02149 20.833 2.02149 20.6187C2.02002 14.8578 2.02149 9.0954 2.01855 3.33449C2.01855 2.33936 2.23568 1.43816 3.01764 0.751258C3.58099 0.25516 4.23385 -0.000228156 4.98939 -0.000228156C12.3292 0.00123959 19.6705 -0.0046314 27.0103 0.00564283C28.671 0.00711058 29.9459 1.27524 29.9489 2.93673C29.9606 8.97211 29.9621 15.0075 29.9459 21.0414C29.943 22.217 29.3312 23.0537 28.3233 23.6393C28.1532 23.7376 27.9918 23.9974 27.9771 24.1941C27.9316 24.7739 27.961 25.3595 27.961 26.0317C28.608 26.0317 29.2241 26.0229 29.8403 26.0332C31.8766 26.0669 33.3862 27.2177 33.8542 29.1331C33.9584 29.5617 33.9569 30.0225 33.9569 30.4687C33.9628 36.1518 33.9569 41.8364 33.9672 47.5195C33.9672 47.9246 33.9921 48.3503 34.1124 48.7319C34.4044 49.6654 35.3727 50.1967 36.3938 50.0455C37.2901 49.9134 37.9943 49.1296 38.0574 48.1918C38.0706 47.9965 38.0706 47.8013 38.0706 47.6061C38.0706 38.603 38.0706 29.5983 38.0706 20.5952V20.1358C37.2124 19.7806 36.4026 19.5751 35.7409 19.1451C34.5614 18.376 34.0816 17.1695 34.0728 15.778C34.064 14.3323 34.0875 12.8866 34.0567 11.4423C34.0508 11.1385 33.932 10.798 33.7618 10.5426C33.329 9.89532 32.8287 9.29207 32.371 8.65948C31.9588 8.08999 31.9984 7.55426 32.4546 7.20641C32.8918 6.87323 33.4728 6.97891 33.8777 7.5161C35.5927 9.79111 37.2975 12.0749 39.0022 14.3573C39.7196 15.3172 39.9969 16.4224 39.9969 17.5995C40.0013 27.6389 40.0042 37.6768 39.9969 47.7162C39.9954 49.9912 38.612 51.638 36.5771 51.9316C34.3017 52.2603 32.2052 50.5563 32.0835 48.1712C32.0732 47.9569 32.0761 47.7412 32.0761 47.5269C32.0761 41.8041 32.0761 36.0814 32.0761 30.3586C32.0761 28.7338 31.3059 27.9618 29.6775 27.9501C29.1332 27.9457 28.5874 27.9501 28.0035 27.9501V54.1082C28.8867 54.1082 29.7596 54.1053 30.6325 54.1082C31.6815 54.1126 31.9573 54.3871 31.9602 55.4204C31.9632 56.5139 31.9382 57.6088 31.9705 58.7008C31.9866 59.2556 31.8355 59.6886 31.3675 59.9983H0.673237V59.9998ZM5.99728 54.0525C6.19387 54.0671 6.36405 54.0892 6.5357 54.0892C12.8383 54.0906 19.1409 54.0833 25.4435 54.1038C25.998 54.1053 26.0699 53.8954 26.0684 53.4184C26.0567 43.8135 26.0596 34.21 26.0582 24.6051C26.0582 24.3981 26.0391 24.1926 26.0274 23.9725H5.99728V54.0539V54.0525ZM15.972 22.0116C19.5252 22.0116 23.0771 22.0116 26.6303 22.0116C27.6998 22.0116 28.0607 21.6476 28.0622 20.5673C28.0622 14.8255 28.0622 9.08512 28.0622 3.3433C28.0622 2.27478 27.6852 1.8961 26.6215 1.8961C19.5355 1.8961 12.451 1.8961 5.36497 1.8961C4.31013 1.8961 3.96537 2.24102 3.96537 3.29339C3.96537 9.07338 3.9639 14.8548 3.96537 20.6348C3.96537 21.6975 4.2896 22.0101 5.37524 22.0116C8.90797 22.0116 12.4407 22.0116 15.9749 22.0116H15.972ZM1.96427 58.0712H30.034V56.0501H1.96427V58.0712ZM38.0119 18.0076C38.3949 16.0657 37.0202 14.9752 36.0505 13.685C35.9815 13.8127 35.9683 13.9228 35.9698 14.0329C35.9756 14.7154 35.9434 15.4008 36.002 16.0789C36.1033 17.2385 36.7811 17.8725 38.0119 18.0076Z" fill="#333333"/>
<path d="M5.99744 54.0527V23.9712H26.0275C26.0392 24.1914 26.0583 24.3984 26.0583 24.6038C26.0598 34.2088 26.0569 43.8122 26.0686 53.4172C26.0686 53.8942 25.9982 54.1041 25.4436 54.1026C19.141 54.0835 12.8384 54.0909 6.53586 54.0879C6.36421 54.0879 6.19403 54.0644 5.99744 54.0512V54.0527ZM15.0391 47.6636C15.0391 47.9366 15.0391 48.2096 15.0391 48.4826C15.0391 48.6191 15.0361 48.7556 15.0405 48.8921C15.0611 49.5717 15.422 49.9944 15.9824 50.0032C16.5575 50.012 16.9653 49.557 16.9756 48.8657C16.9874 48.1054 17.0064 47.3422 16.9683 46.5833C16.9433 46.099 17.0739 45.8685 17.5815 45.7497C18.943 45.4312 20.0051 44.6327 20.8282 43.5128C22.1221 41.7544 22.175 39.7847 21.7231 37.7666C20.9353 34.244 19.0897 31.263 16.8392 28.508C16.2787 27.8226 15.6259 27.8681 15.0992 28.5873C14.6283 29.2316 14.1691 29.8863 13.7436 30.5629C12.2164 32.9905 10.8417 35.4916 10.1948 38.3229C9.48762 41.4154 10.8329 44.3788 13.6937 45.4605C14.91 45.9214 15.3163 46.4806 15.0405 47.6621L15.0391 47.6636Z" fill="#94CB6C"/>
<path d="M15.9721 22.0118C12.4394 22.0118 8.90666 22.0118 5.37246 22.0118C4.28682 22.0118 3.9626 21.6977 3.9626 20.635C3.96113 14.8551 3.9626 9.07361 3.9626 3.29363C3.9626 2.23978 4.30736 1.89633 5.36219 1.89633C12.4482 1.89633 19.5327 1.89633 26.6187 1.89633C27.6824 1.89633 28.0594 2.27501 28.0594 3.34353C28.0594 9.08535 28.0594 14.8257 28.0594 20.5675C28.0594 21.6478 27.6971 22.0118 26.6276 22.0118C23.0743 22.0118 19.5225 22.0118 15.9692 22.0118H15.9721ZM15.9721 19.9423C18.8814 19.9423 21.7891 19.9423 24.6983 19.9423C25.6123 19.9423 25.9894 19.5797 25.9894 18.6785C25.9938 14.2063 25.9938 9.7341 25.9894 5.26187C25.9894 4.35187 25.6138 3.97026 24.7145 3.97026C18.8975 3.96732 13.0805 3.96585 7.26353 3.97026C6.36861 3.97026 6.03412 4.31518 6.03412 5.21491C6.03118 9.70621 6.03118 14.199 6.03412 18.6903C6.03412 19.6282 6.35541 19.9408 7.30461 19.9423C10.1933 19.9437 13.0834 19.9423 15.9721 19.9423Z" fill="#A6D177"/>
<path d="M1.96442 58.0714V56.0503H30.0341V58.0714H1.96442Z" fill="#C8D0E3"/>
<path d="M15.0391 47.6636C15.3163 46.4821 14.9085 45.9214 13.6923 45.462C10.8315 44.3788 9.48615 41.4169 10.1933 38.3243C10.8403 35.493 12.2164 32.992 13.7422 30.5644C14.1676 29.8892 14.6268 29.2331 15.0977 28.5888C15.6244 27.8696 16.2773 27.8241 16.8377 28.5095C19.0882 31.2645 20.9338 34.2455 21.7216 37.7681C22.1735 39.7847 22.1192 41.7559 20.8267 43.5143C20.0037 44.6327 18.9415 45.4326 17.58 45.7511C17.0724 45.87 16.9433 46.1019 16.9668 46.5848C17.0049 47.3436 16.9859 48.1069 16.9741 48.8671C16.9639 49.5585 16.556 50.0135 15.9809 50.0047C15.4205 49.9958 15.0611 49.5731 15.0391 48.8936C15.0347 48.7571 15.0376 48.6206 15.0376 48.4841C15.0376 48.2111 15.0376 47.9381 15.0376 47.6651L15.0391 47.6636ZM15.9736 30.4954C15.0053 32.2655 14.0062 33.8727 13.2331 35.5826C12.6624 36.8434 12.2281 38.2142 12.0154 39.5793C11.6618 41.8513 13.4429 43.6478 15.0376 43.868C15.0376 43.6508 15.0376 43.4438 15.0376 43.2369C15.0376 41.5181 15.0376 39.7994 15.042 38.0807C15.042 37.542 15.3002 37.1721 15.8401 37.0885C16.3096 37.0166 16.6895 37.2147 16.8597 37.6756C16.9389 37.8884 16.9565 38.1321 16.958 38.3625C16.9653 39.9829 16.9624 41.6047 16.9624 43.2251C16.9624 43.4482 16.9624 43.6713 16.9624 43.9091C18.8725 43.4321 20.0902 41.8014 20.0095 39.8669C19.8599 36.3062 18.0656 33.4499 15.9736 30.4954Z" fill="#333333"/>
<path d="M15.9721 19.9423C13.0834 19.9423 10.1933 19.9423 7.3046 19.9423C6.3554 19.9423 6.03411 19.6282 6.03411 18.6903C6.03117 14.199 6.03117 9.7062 6.03411 5.2149C6.03411 4.31517 6.3686 3.97025 7.26352 3.97025C13.0805 3.96585 18.8975 3.96585 24.7145 3.97025C25.6138 3.97025 25.9879 4.35333 25.9894 5.26187C25.9923 9.73409 25.9938 14.2063 25.9894 18.6785C25.9894 19.5783 25.6109 19.9408 24.6983 19.9423C21.7891 19.9437 18.8813 19.9423 15.9721 19.9423ZM7.95598 18.0166C9.24848 18.0166 10.4383 18.0048 11.6281 18.0239C11.9905 18.0298 12.1577 17.9329 12.2956 17.566C12.925 15.881 14.7398 14.7391 16.4078 15.0356C16.9844 15.1383 17.2001 14.949 17.4377 14.5043C17.9732 13.5091 18.541 12.5301 19.1205 11.56C19.455 11.0008 19.967 10.8554 20.4599 11.1255C20.9529 11.3956 21.0908 11.9122 20.815 12.4891C20.7313 12.6637 20.6242 12.8281 20.5274 12.9969C19.9406 14.0272 19.3537 15.0591 18.8227 15.9926C19.1704 16.6325 19.4667 17.1976 19.7851 17.7495C19.8496 17.861 19.9963 17.999 20.1064 18.0004C21.3915 18.0181 22.6752 18.0122 23.9457 18.0122C23.9897 17.9153 24.0352 17.8625 24.0352 17.8111C24.044 16.2685 24.0528 14.7274 24.0425 13.1848C24.0425 13.0292 23.9428 12.8501 23.8416 12.721C19.942 7.71741 12.1665 7.68805 8.20539 12.6608C8.10123 12.7914 7.97066 12.9558 7.96919 13.1055C7.95158 14.72 7.95892 16.3345 7.95892 18.0151L7.95598 18.0166ZM24.0645 10.0188C24.0645 8.82702 24.0352 7.713 24.0778 6.60192C24.0998 6.04271 23.9413 5.87832 23.3692 5.88126C18.45 5.90327 13.5294 5.89447 8.6103 5.89447H7.98239V9.97333C13.3446 5.96932 18.6672 5.97079 24.0631 10.0188H24.0645ZM17.6314 17.977C17.3409 17.315 16.7453 16.976 15.931 16.9965C15.2298 17.0141 14.6899 17.2974 14.2982 17.977H17.6314Z" fill="#333333"/>
<path d="M15.9736 30.4954C18.0656 33.4514 19.8614 36.3076 20.0095 39.8669C20.0902 41.8029 18.8725 43.4321 16.9624 43.9091C16.9624 43.6713 16.9624 43.4482 16.9624 43.2251C16.9624 41.6047 16.9653 39.9829 16.958 38.3625C16.958 38.132 16.9389 37.8884 16.8597 37.6756C16.6881 37.2147 16.3096 37.0151 15.8401 37.0885C15.3002 37.1721 15.0435 37.5405 15.042 38.0807C15.0376 39.7994 15.0376 41.5181 15.0376 43.2369C15.0376 43.4438 15.0376 43.6508 15.0376 43.868C13.4429 43.6493 11.6618 41.8528 12.0154 39.5792C12.2281 38.2142 12.6624 36.8434 13.2331 35.5826C14.0062 33.8726 15.0068 32.2655 15.9736 30.4954Z" fill="#FDDE64"/>
<path d="M7.95598 18.0166C7.95598 16.3375 7.95011 14.723 7.96625 13.107C7.96772 12.9573 8.09829 12.7929 8.20245 12.6622C12.1636 7.68952 19.9391 7.71741 23.8386 12.7224C23.9398 12.8531 24.0396 13.0306 24.0396 13.1862C24.0499 14.7274 24.0396 16.27 24.0323 17.8126C24.0323 17.8654 23.9868 17.9168 23.9428 18.0136C22.6723 18.0136 21.3886 18.0195 20.1034 18.0019C19.9934 18.0004 19.8467 17.8625 19.7821 17.7509C19.4638 17.199 19.1674 16.6354 18.8197 15.994C19.3508 15.0591 19.9376 14.0287 20.5245 12.9984C20.6213 12.8296 20.7284 12.6652 20.812 12.4905C21.0878 11.9137 20.9499 11.397 20.457 11.127C19.9641 10.8569 19.452 11.0008 19.1175 11.5614C18.538 12.5316 17.9703 13.5106 17.4348 14.5057C17.1957 14.949 16.9815 15.1398 16.4049 15.0371C14.7383 14.7406 12.9221 15.8825 12.2927 17.5675C12.1548 17.9344 11.9875 18.0313 11.6252 18.0254C10.4354 18.0063 9.24555 18.018 7.95305 18.018L7.95598 18.0166Z" fill="#FDDE64"/>
<path d="M24.0645 10.0188C18.6686 5.97226 13.3446 5.9708 7.98386 9.97334V5.89447H8.61177C13.5309 5.89447 18.4515 5.90328 23.3706 5.88126C23.9413 5.87833 24.0998 6.04418 24.0792 6.60193C24.0367 7.71301 24.066 8.82703 24.066 10.0188H24.0645Z" fill="#FBF185"/>
<path d="M17.6314 17.977H14.2982C14.6884 17.2974 15.2283 17.0126 15.931 16.9965C16.7453 16.976 17.3409 17.315 17.6314 17.977Z" fill="#FDDE64"/>
</g>
<path d="M71.2273 17.4545H64.8182C64.7727 16.9242 64.6515 16.4432 64.4545 16.0114C64.2652 15.5795 64 15.2083 63.6591 14.8977C63.3258 14.5795 62.9205 14.3371 62.4432 14.1705C61.9659 13.9962 61.4242 13.9091 60.8182 13.9091C59.7576 13.9091 58.8598 14.1667 58.125 14.6818C57.3977 15.197 56.8447 15.9356 56.4659 16.8977C56.0947 17.8598 55.9091 19.0152 55.9091 20.3636C55.9091 21.7879 56.0985 22.9811 56.4773 23.9432C56.8636 24.8977 57.4205 25.6174 58.1477 26.1023C58.875 26.5795 59.75 26.8182 60.7727 26.8182C61.3561 26.8182 61.8788 26.7462 62.3409 26.6023C62.803 26.4508 63.2045 26.2348 63.5455 25.9545C63.8864 25.6742 64.1629 25.3371 64.375 24.9432C64.5947 24.5417 64.7424 24.0909 64.8182 23.5909L71.2273 23.6364C71.1515 24.6212 70.875 25.625 70.3977 26.6477C69.9205 27.6629 69.2424 28.6023 68.3636 29.4659C67.4924 30.322 66.4129 31.0114 65.125 31.5341C63.8371 32.0568 62.3409 32.3182 60.6364 32.3182C58.5 32.3182 56.5833 31.8598 54.8864 30.9432C53.197 30.0265 51.8598 28.678 50.875 26.8977C49.8977 25.1174 49.4091 22.9394 49.4091 20.3636C49.4091 17.7727 49.9091 15.5909 50.9091 13.8182C51.9091 12.0379 53.2576 10.6932 54.9545 9.78409C56.6515 8.86742 58.5455 8.40909 60.6364 8.40909C62.1061 8.40909 63.4583 8.60985 64.6932 9.01136C65.928 9.41288 67.0114 10 67.9432 10.7727C68.875 11.5379 69.625 12.4811 70.1932 13.6023C70.7614 14.7235 71.1061 16.0076 71.2273 17.4545ZM79.4205 32H72.6023L80.2841 8.72727H88.9205L96.6023 32H89.7841L84.6932 15.1364H84.5114L79.4205 32ZM78.1477 22.8182H90.9659V27.5455H78.1477V22.8182ZM98.8438 32V8.72727H105.162V26.9091H114.571V32H98.8438ZM137.946 17.4545H131.537C131.491 16.9242 131.37 16.4432 131.173 16.0114C130.984 15.5795 130.719 15.2083 130.378 14.8977C130.045 14.5795 129.639 14.3371 129.162 14.1705C128.685 13.9962 128.143 13.9091 127.537 13.9091C126.476 13.9091 125.579 14.1667 124.844 14.6818C124.116 15.197 123.563 15.9356 123.185 16.8977C122.813 17.8598 122.628 19.0152 122.628 20.3636C122.628 21.7879 122.817 22.9811 123.196 23.9432C123.582 24.8977 124.139 25.6174 124.866 26.1023C125.594 26.5795 126.469 26.8182 127.491 26.8182C128.075 26.8182 128.598 26.7462 129.06 26.6023C129.522 26.4508 129.923 26.2348 130.264 25.9545C130.605 25.6742 130.882 25.3371 131.094 24.9432C131.313 24.5417 131.461 24.0909 131.537 23.5909L137.946 23.6364C137.87 24.6212 137.594 25.625 137.116 26.6477C136.639 27.6629 135.961 28.6023 135.082 29.4659C134.211 30.322 133.132 31.0114 131.844 31.5341C130.556 32.0568 129.06 32.3182 127.355 32.3182C125.219 32.3182 123.302 31.8598 121.605 30.9432C119.916 30.0265 118.579 28.678 117.594 26.8977C116.616 25.1174 116.128 22.9394 116.128 20.3636C116.128 17.7727 116.628 15.5909 117.628 13.8182C118.628 12.0379 119.976 10.6932 121.673 9.78409C123.37 8.86742 125.264 8.40909 127.355 8.40909C128.825 8.40909 130.177 8.60985 131.412 9.01136C132.647 9.41288 133.73 10 134.662 10.7727C135.594 11.5379 136.344 12.4811 136.912 13.6023C137.48 14.7235 137.825 16.0076 137.946 17.4545ZM154.585 8.72727H160.903V23.6364C160.903 25.4091 160.479 26.9432 159.631 28.2386C158.79 29.5265 157.616 30.5227 156.108 31.2273C154.6 31.9242 152.85 32.2727 150.858 32.2727C148.85 32.2727 147.093 31.9242 145.585 31.2273C144.078 30.5227 142.903 29.5265 142.062 28.2386C141.229 26.9432 140.812 25.4091 140.812 23.6364V8.72727H147.131V23.0909C147.131 23.8106 147.29 24.4545 147.608 25.0227C147.926 25.5833 148.366 26.0227 148.926 26.3409C149.494 26.6591 150.138 26.8182 150.858 26.8182C151.585 26.8182 152.229 26.6591 152.79 26.3409C153.35 26.0227 153.79 25.5833 154.108 25.0227C154.426 24.4545 154.585 23.8106 154.585 23.0909V8.72727ZM163.906 32V8.72727H170.224V26.9091H179.634V32H163.906ZM188.233 32H181.415L189.097 8.72727H197.733L205.415 32H198.597L193.506 15.1364H193.324L188.233 32ZM186.96 22.8182H199.778V27.5455H186.96V22.8182ZM216.611 32H207.656V8.72727H216.52C218.914 8.72727 220.982 9.19318 222.724 10.125C224.474 11.0492 225.823 12.3826 226.77 14.125C227.724 15.8598 228.202 17.9394 228.202 20.3636C228.202 22.7879 227.728 24.8712 226.781 26.6136C225.834 28.3485 224.493 29.6818 222.759 30.6136C221.024 31.5379 218.974 32 216.611 32ZM213.974 26.6364H216.384C217.535 26.6364 218.516 26.4508 219.327 26.0795C220.145 25.7083 220.766 25.0682 221.19 24.1591C221.622 23.25 221.838 21.9848 221.838 20.3636C221.838 18.7424 221.618 17.4773 221.179 16.5682C220.747 15.6591 220.111 15.0189 219.27 14.6477C218.437 14.2765 217.414 14.0909 216.202 14.0909H213.974V26.6364ZM253.67 20.3636C253.67 22.9545 253.167 25.1402 252.159 26.9205C251.152 28.6932 249.792 30.0379 248.08 30.9545C246.367 31.8636 244.458 32.3182 242.352 32.3182C240.231 32.3182 238.314 31.8598 236.602 30.9432C234.898 30.0189 233.542 28.6705 232.534 26.8977C231.534 25.1174 231.034 22.9394 231.034 20.3636C231.034 17.7727 231.534 15.5909 232.534 13.8182C233.542 12.0379 234.898 10.6932 236.602 9.78409C238.314 8.86742 240.231 8.40909 242.352 8.40909C244.458 8.40909 246.367 8.86742 248.08 9.78409C249.792 10.6932 251.152 12.0379 252.159 13.8182C253.167 15.5909 253.67 17.7727 253.67 20.3636ZM247.17 20.3636C247.17 18.9697 246.985 17.7955 246.614 16.8409C246.25 15.8788 245.708 15.1515 244.989 14.6591C244.277 14.1591 243.398 13.9091 242.352 13.9091C241.307 13.9091 240.424 14.1591 239.705 14.6591C238.992 15.1515 238.451 15.8788 238.08 16.8409C237.716 17.7955 237.534 18.9697 237.534 20.3636C237.534 21.7576 237.716 22.9356 238.08 23.8977C238.451 24.8523 238.992 25.5795 239.705 26.0795C240.424 26.572 241.307 26.8182 242.352 26.8182C243.398 26.8182 244.277 26.572 244.989 26.0795C245.708 25.5795 246.25 24.8523 246.614 23.8977C246.985 22.9356 247.17 21.7576 247.17 20.3636ZM256.594 32V8.72727H266.639C268.366 8.72727 269.878 9.04167 271.173 9.67045C272.469 10.2992 273.476 11.2045 274.196 12.3864C274.916 13.5682 275.276 14.9848 275.276 16.6364C275.276 18.303 274.904 19.7083 274.162 20.8523C273.427 21.9962 272.393 22.8598 271.06 23.4432C269.734 24.0265 268.185 24.3182 266.412 24.3182H260.412V19.4091H265.139C265.882 19.4091 266.514 19.3182 267.037 19.1364C267.567 18.947 267.973 18.6477 268.253 18.2386C268.541 17.8295 268.685 17.2955 268.685 16.6364C268.685 15.9697 268.541 15.428 268.253 15.0114C267.973 14.5871 267.567 14.2765 267.037 14.0795C266.514 13.875 265.882 13.7727 265.139 13.7727H262.912V32H256.594ZM270.23 21.3182L276.048 32H269.185L263.503 21.3182H270.23ZM284.014 32H277.196L284.878 8.72727H293.514L301.196 32H294.378L289.287 15.1364H289.105L284.014 32ZM282.741 22.8182H295.56V27.5455H282.741V22.8182Z" fill="#94CB6C"/>
<path d="M49.1477 55V43.3636H56.7159V45.1307H51.2557V48.2898H56.3239V50.0568H51.2557V53.233H56.7614V55H49.1477ZM63.1335 46.2727V47.8636H58.1165V46.2727H63.1335ZM59.3551 44.1818H61.4119V52.375C61.4119 52.6515 61.4536 52.8636 61.5369 53.0114C61.6241 53.1553 61.7377 53.2538 61.8778 53.3068C62.018 53.3598 62.1733 53.3864 62.3438 53.3864C62.4725 53.3864 62.59 53.3769 62.696 53.358C62.8059 53.339 62.8892 53.322 62.946 53.3068L63.2926 54.9148C63.1828 54.9527 63.0256 54.9943 62.821 55.0398C62.6203 55.0852 62.3741 55.1117 62.0824 55.1193C61.5672 55.1345 61.1032 55.0568 60.6903 54.8864C60.2775 54.7121 59.9498 54.4432 59.7074 54.0795C59.4688 53.7159 59.3513 53.2614 59.3551 52.7159V44.1818ZM67.3651 55.1761C66.812 55.1761 66.3139 55.0777 65.8707 54.8807C65.4313 54.6799 65.0829 54.3845 64.8253 53.9943C64.5715 53.6042 64.4446 53.1231 64.4446 52.5511C64.4446 52.0587 64.5355 51.6515 64.7173 51.3295C64.8991 51.0076 65.1473 50.75 65.4616 50.5568C65.776 50.3636 66.1302 50.2178 66.5241 50.1193C66.9219 50.017 67.3329 49.9432 67.7571 49.8977C68.2685 49.8447 68.6832 49.7973 69.0014 49.7557C69.3196 49.7102 69.5507 49.642 69.6946 49.5511C69.8423 49.4564 69.9162 49.3106 69.9162 49.1136V49.0795C69.9162 48.6515 69.7893 48.3201 69.5355 48.0852C69.2817 47.8504 68.9162 47.733 68.4389 47.733C67.9351 47.733 67.5355 47.8428 67.2401 48.0625C66.9484 48.2822 66.7514 48.5417 66.6491 48.8409L64.7287 48.5682C64.8802 48.0379 65.1302 47.5947 65.4787 47.2386C65.8272 46.8788 66.2533 46.6098 66.7571 46.4318C67.2609 46.25 67.8177 46.1591 68.4276 46.1591C68.848 46.1591 69.2666 46.2083 69.6832 46.3068C70.0999 46.4053 70.4806 46.5682 70.8253 46.7955C71.17 47.0189 71.4465 47.3239 71.6548 47.7102C71.867 48.0966 71.973 48.5795 71.973 49.1591V55H69.9957V53.8011H69.9276C69.8026 54.0436 69.6264 54.2708 69.3991 54.483C69.1757 54.6913 68.8935 54.8598 68.5526 54.9886C68.2154 55.1136 67.8196 55.1761 67.3651 55.1761ZM67.8991 53.6648C68.312 53.6648 68.67 53.5833 68.973 53.4205C69.276 53.2538 69.509 53.0341 69.6719 52.7614C69.8385 52.4886 69.9219 52.1913 69.9219 51.8693V50.8409C69.8575 50.8939 69.7476 50.9432 69.5923 50.9886C69.4408 51.0341 69.2704 51.0739 69.081 51.108C68.8916 51.142 68.7041 51.1723 68.5185 51.1989C68.3329 51.2254 68.1719 51.2481 68.0355 51.267C67.7287 51.3087 67.4541 51.3769 67.2116 51.4716C66.9692 51.5663 66.7779 51.6989 66.6378 51.8693C66.4976 52.036 66.4276 52.2519 66.4276 52.517C66.4276 52.8958 66.5658 53.1818 66.8423 53.375C67.1188 53.5682 67.4711 53.6648 67.8991 53.6648ZM76.098 49.8864V55H74.0412V46.2727H76.0071V47.7557H76.1094C76.3101 47.267 76.6302 46.8788 77.0696 46.5909C77.5128 46.303 78.0601 46.1591 78.7116 46.1591C79.3139 46.1591 79.8385 46.2879 80.2855 46.5455C80.7363 46.803 81.0848 47.1761 81.331 47.6648C81.581 48.1534 81.7041 48.7462 81.7003 49.4432V55H79.6435V49.7614C79.6435 49.178 79.492 48.7216 79.1889 48.392C78.8897 48.0625 78.4749 47.8977 77.9446 47.8977C77.5848 47.8977 77.2647 47.9773 76.9844 48.1364C76.7079 48.2917 76.4901 48.517 76.331 48.8125C76.1757 49.108 76.098 49.4659 76.098 49.8864ZM87.598 55.1705C86.7457 55.1705 86.0071 54.983 85.3821 54.608C84.7571 54.233 84.2723 53.7083 83.9276 53.0341C83.5866 52.3598 83.4162 51.572 83.4162 50.6705C83.4162 49.7689 83.5866 48.9792 83.9276 48.3011C84.2723 47.6231 84.7571 47.0966 85.3821 46.7216C86.0071 46.3466 86.7457 46.1591 87.598 46.1591C88.4503 46.1591 89.1889 46.3466 89.8139 46.7216C90.4389 47.0966 90.9219 47.6231 91.2628 48.3011C91.6075 48.9792 91.7798 49.7689 91.7798 50.6705C91.7798 51.572 91.6075 52.3598 91.2628 53.0341C90.9219 53.7083 90.4389 54.233 89.8139 54.608C89.1889 54.983 88.4503 55.1705 87.598 55.1705ZM87.6094 53.5227C88.0715 53.5227 88.4579 53.3958 88.7685 53.142C89.0791 52.8845 89.3101 52.5398 89.4616 52.108C89.617 51.6761 89.6946 51.1951 89.6946 50.6648C89.6946 50.1307 89.617 49.6477 89.4616 49.2159C89.3101 48.7803 89.0791 48.4337 88.7685 48.1761C88.4579 47.9186 88.0715 47.7898 87.6094 47.7898C87.1359 47.7898 86.742 47.9186 86.4276 48.1761C86.117 48.4337 85.884 48.7803 85.7287 49.2159C85.5772 49.6477 85.5014 50.1307 85.5014 50.6648C85.5014 51.1951 85.5772 51.6761 85.7287 52.108C85.884 52.5398 86.117 52.8845 86.4276 53.142C86.742 53.3958 87.1359 53.5227 87.6094 53.5227ZM95.5824 43.3636V55H93.5256V43.3636H95.5824ZM103.348 46.2727L105.109 49.4943L106.899 46.2727H109.075L106.445 50.6364L109.121 55H106.956L105.109 51.858L103.28 55H101.098L103.757 50.6364L101.166 46.2727H103.348ZM122.521 47.0795C122.427 46.7727 122.296 46.4981 122.129 46.2557C121.966 46.0095 121.769 45.7992 121.538 45.625C121.311 45.4508 121.05 45.3201 120.754 45.233C120.459 45.142 120.137 45.0966 119.788 45.0966C119.163 45.0966 118.607 45.2538 118.118 45.5682C117.629 45.8826 117.245 46.3447 116.964 46.9545C116.688 47.5606 116.55 48.2992 116.55 49.1705C116.55 50.0492 116.688 50.7936 116.964 51.4034C117.241 52.0133 117.625 52.4773 118.118 52.7955C118.61 53.1098 119.182 53.267 119.834 53.267C120.425 53.267 120.936 53.1534 121.368 52.9261C121.804 52.6989 122.139 52.3769 122.374 51.9602C122.608 51.5398 122.726 51.0473 122.726 50.483L123.203 50.5568H120.044V48.9091H124.766V50.3068C124.766 51.303 124.554 52.1648 124.129 52.892C123.705 53.6193 123.122 54.1799 122.379 54.5739C121.637 54.964 120.785 55.1591 119.822 55.1591C118.75 55.1591 117.809 54.9186 116.999 54.4375C116.192 53.9527 115.561 53.2652 115.107 52.375C114.656 51.4811 114.43 50.4205 114.43 49.1932C114.43 48.2538 114.563 47.4148 114.828 46.6761C115.097 45.9375 115.472 45.3106 115.953 44.7955C116.434 44.2765 116.999 43.8826 117.646 43.6136C118.294 43.3409 118.999 43.2045 119.76 43.2045C120.404 43.2045 121.004 43.2992 121.561 43.4886C122.118 43.6742 122.612 43.9394 123.044 44.2841C123.48 44.6288 123.838 45.0379 124.118 45.5114C124.398 45.9848 124.582 46.5076 124.669 47.0795H122.521ZM129.224 55.1761C128.671 55.1761 128.173 55.0777 127.73 54.8807C127.291 54.6799 126.942 54.3845 126.685 53.9943C126.431 53.6042 126.304 53.1231 126.304 52.5511C126.304 52.0587 126.395 51.6515 126.577 51.3295C126.759 51.0076 127.007 50.75 127.321 50.5568C127.635 50.3636 127.99 50.2178 128.384 50.1193C128.781 50.017 129.192 49.9432 129.616 49.8977C130.128 49.8447 130.543 49.7973 130.861 49.7557C131.179 49.7102 131.41 49.642 131.554 49.5511C131.702 49.4564 131.776 49.3106 131.776 49.1136V49.0795C131.776 48.6515 131.649 48.3201 131.395 48.0852C131.141 47.8504 130.776 47.733 130.298 47.733C129.795 47.733 129.395 47.8428 129.099 48.0625C128.808 48.2822 128.611 48.5417 128.509 48.8409L126.588 48.5682C126.74 48.0379 126.99 47.5947 127.338 47.2386C127.687 46.8788 128.113 46.6098 128.616 46.4318C129.12 46.25 129.677 46.1591 130.287 46.1591C130.707 46.1591 131.126 46.2083 131.543 46.3068C131.959 46.4053 132.34 46.5682 132.685 46.7955C133.029 47.0189 133.306 47.3239 133.514 47.7102C133.726 48.0966 133.832 48.5795 133.832 49.1591V55H131.855V53.8011H131.787C131.662 54.0436 131.486 54.2708 131.259 54.483C131.035 54.6913 130.753 54.8598 130.412 54.9886C130.075 55.1136 129.679 55.1761 129.224 55.1761ZM129.759 53.6648C130.171 53.6648 130.529 53.5833 130.832 53.4205C131.135 53.2538 131.368 53.0341 131.531 52.7614C131.698 52.4886 131.781 52.1913 131.781 51.8693V50.8409C131.717 50.8939 131.607 50.9432 131.452 50.9886C131.3 51.0341 131.13 51.0739 130.94 51.108C130.751 51.142 130.563 51.1723 130.378 51.1989C130.192 51.2254 130.031 51.2481 129.895 51.267C129.588 51.3087 129.313 51.3769 129.071 51.4716C128.829 51.5663 128.637 51.6989 128.497 51.8693C128.357 52.036 128.287 52.2519 128.287 52.517C128.287 52.8958 128.425 53.1818 128.702 53.375C128.978 53.5682 129.33 53.6648 129.759 53.6648ZM142.798 48.5795L140.923 48.7841C140.87 48.5947 140.777 48.4167 140.645 48.25C140.516 48.0833 140.342 47.9489 140.122 47.8466C139.902 47.7443 139.634 47.6932 139.315 47.6932C138.887 47.6932 138.527 47.786 138.236 47.9716C137.948 48.1572 137.806 48.3977 137.81 48.6932C137.806 48.947 137.899 49.1534 138.088 49.3125C138.281 49.4716 138.599 49.6023 139.043 49.7045L140.531 50.0227C141.357 50.2008 141.971 50.483 142.372 50.8693C142.777 51.2557 142.982 51.7614 142.986 52.3864C142.982 52.9356 142.821 53.4205 142.503 53.8409C142.188 54.2576 141.751 54.5833 141.19 54.8182C140.63 55.053 139.986 55.1705 139.259 55.1705C138.19 55.1705 137.33 54.947 136.679 54.5C136.027 54.0492 135.639 53.4223 135.514 52.6193L137.52 52.4261C137.611 52.8201 137.804 53.1174 138.099 53.3182C138.395 53.5189 138.779 53.6193 139.253 53.6193C139.741 53.6193 140.134 53.5189 140.429 53.3182C140.728 53.1174 140.878 52.8693 140.878 52.5739C140.878 52.3239 140.781 52.1174 140.588 51.9545C140.399 51.7917 140.103 51.6667 139.702 51.5795L138.213 51.267C137.376 51.0928 136.757 50.7992 136.355 50.3864C135.954 49.9697 135.755 49.4432 135.759 48.8068C135.755 48.2689 135.901 47.803 136.196 47.4091C136.495 47.0114 136.91 46.7045 137.44 46.4886C137.974 46.2689 138.59 46.1591 139.287 46.1591C140.31 46.1591 141.115 46.3769 141.702 46.8125C142.293 47.2481 142.658 47.8371 142.798 48.5795ZM148.489 55.1705C147.636 55.1705 146.898 54.983 146.273 54.608C145.648 54.233 145.163 53.7083 144.818 53.0341C144.477 52.3598 144.307 51.572 144.307 50.6705C144.307 49.7689 144.477 48.9792 144.818 48.3011C145.163 47.6231 145.648 47.0966 146.273 46.7216C146.898 46.3466 147.636 46.1591 148.489 46.1591C149.341 46.1591 150.08 46.3466 150.705 46.7216C151.33 47.0966 151.813 47.6231 152.153 48.3011C152.498 48.9792 152.67 49.7689 152.67 50.6705C152.67 51.572 152.498 52.3598 152.153 53.0341C151.813 53.7083 151.33 54.233 150.705 54.608C150.08 54.983 149.341 55.1705 148.489 55.1705ZM148.5 53.5227C148.962 53.5227 149.348 53.3958 149.659 53.142C149.97 52.8845 150.201 52.5398 150.352 52.108C150.508 51.6761 150.585 51.1951 150.585 50.6648C150.585 50.1307 150.508 49.6477 150.352 49.2159C150.201 48.7803 149.97 48.4337 149.659 48.1761C149.348 47.9186 148.962 47.7898 148.5 47.7898C148.027 47.7898 147.633 47.9186 147.318 48.1761C147.008 48.4337 146.775 48.7803 146.619 49.2159C146.468 49.6477 146.392 50.1307 146.392 50.6648C146.392 51.1951 146.468 51.6761 146.619 52.108C146.775 52.5398 147.008 52.8845 147.318 53.142C147.633 53.3958 148.027 53.5227 148.5 53.5227ZM156.473 43.3636V55H154.416V43.3636H156.473ZM158.588 55V46.2727H160.645V55H158.588ZM159.622 45.0341C159.296 45.0341 159.016 44.9261 158.781 44.7102C158.546 44.4905 158.429 44.2273 158.429 43.9205C158.429 43.6098 158.546 43.3466 158.781 43.1307C159.016 42.911 159.296 42.8011 159.622 42.8011C159.952 42.8011 160.232 42.911 160.463 43.1307C160.698 43.3466 160.815 43.6098 160.815 43.9205C160.815 44.2273 160.698 44.4905 160.463 44.7102C160.232 44.9261 159.952 45.0341 159.622 45.0341ZM164.817 49.8864V55H162.76V46.2727H164.726V47.7557H164.828C165.029 47.267 165.349 46.8788 165.788 46.5909C166.232 46.303 166.779 46.1591 167.43 46.1591C168.033 46.1591 168.557 46.2879 169.004 46.5455C169.455 46.803 169.804 47.1761 170.05 47.6648C170.3 48.1534 170.423 48.7462 170.419 49.4432V55H168.362V49.7614C168.362 49.178 168.211 48.7216 167.908 48.392C167.608 48.0625 167.194 47.8977 166.663 47.8977C166.304 47.8977 165.983 47.9773 165.703 48.1364C165.427 48.2917 165.209 48.517 165.05 48.8125C164.894 49.108 164.817 49.4659 164.817 49.8864ZM175.021 55.1761C174.468 55.1761 173.97 55.0777 173.527 54.8807C173.088 54.6799 172.739 54.3845 172.482 53.9943C172.228 53.6042 172.101 53.1231 172.101 52.5511C172.101 52.0587 172.192 51.6515 172.374 51.3295C172.555 51.0076 172.804 50.75 173.118 50.5568C173.432 50.3636 173.786 50.2178 174.18 50.1193C174.578 50.017 174.989 49.9432 175.413 49.8977C175.925 49.8447 176.339 49.7973 176.658 49.7557C176.976 49.7102 177.207 49.642 177.351 49.5511C177.499 49.4564 177.572 49.3106 177.572 49.1136V49.0795C177.572 48.6515 177.446 48.3201 177.192 48.0852C176.938 47.8504 176.572 47.733 176.095 47.733C175.591 47.733 175.192 47.8428 174.896 48.0625C174.605 48.2822 174.408 48.5417 174.305 48.8409L172.385 48.5682C172.536 48.0379 172.786 47.5947 173.135 47.2386C173.483 46.8788 173.91 46.6098 174.413 46.4318C174.917 46.25 175.474 46.1591 176.084 46.1591C176.504 46.1591 176.923 46.2083 177.339 46.3068C177.756 46.4053 178.137 46.5682 178.482 46.7955C178.826 47.0189 179.103 47.3239 179.311 47.7102C179.523 48.0966 179.629 48.5795 179.629 49.1591V55H177.652V53.8011H177.584C177.459 54.0436 177.283 54.2708 177.055 54.483C176.832 54.6913 176.55 54.8598 176.209 54.9886C175.872 55.1136 175.476 55.1761 175.021 55.1761ZM175.555 53.6648C175.968 53.6648 176.326 53.5833 176.629 53.4205C176.932 53.2538 177.165 53.0341 177.328 52.7614C177.495 52.4886 177.578 52.1913 177.578 51.8693V50.8409C177.514 50.8939 177.404 50.9432 177.249 50.9886C177.097 51.0341 176.927 51.0739 176.737 51.108C176.548 51.142 176.36 51.1723 176.175 51.1989C175.989 51.2254 175.828 51.2481 175.692 51.267C175.385 51.3087 175.11 51.3769 174.868 51.4716C174.625 51.5663 174.434 51.6989 174.294 51.8693C174.154 52.036 174.084 52.2519 174.084 52.517C174.084 52.8958 174.222 53.1818 174.499 53.375C174.775 53.5682 175.127 53.6648 175.555 53.6648Z" fill="#FDDE64"/>
<defs>
<clipPath id="clip0_2_85">
<rect width="40" height="60" fill="white"/>
</clipPath>
</defs>
</svg>
